<?xml version="1.0" encoding="iso-8859-1"?>
<!-- Generator: Adobe Illustrator 19.0.0, SVG Export Plug-In . SVG Version: 6.00 Build 0)  -->
<svg version="1.1" id="Layer_1" xmlns="http://www.w3.org/2000/svg" xmlns:xlink="http://www.w3.org/1999/xlink" x="0px" y="0px"
	 viewBox="0 0 297 297" style="enable-background:new 0 0 297 297;" xml:space="preserve">
<g>
	<g>
		<g>
			<path d="M256.935,0H40.065C17.973,0,0,17.973,0,40.065v216.869C0,279.027,17.973,297,40.065,297h216.869
				C279.027,297,297,279.027,297,256.935V40.065C297,17.973,279.027,0,256.935,0z M256.935,276.588H40.065
				c-10.837,0-19.653-8.816-19.653-19.653V40.065c0-10.837,8.816-19.653,19.653-19.653h216.869c10.837,0,19.653,8.816,19.653,19.653
				v216.87h0.001C276.588,267.772,267.772,276.588,256.935,276.588z"/>
			<path d="M131.213,51.86h-51.86c-5.636,0-10.206,4.57-10.206,10.206v172.867c0,5.636,4.57,10.206,10.206,10.206h51.86
				c5.636,0,10.206-4.57,10.206-10.206V62.066C141.419,56.43,136.85,51.86,131.213,51.86z M121.007,224.727H89.559V72.273h31.448
				V224.727z"/>
			<path d="M217.647,51.86h-51.86c-5.636,0-10.206,4.57-10.206,10.206v172.867c0,5.636,4.57,10.206,10.206,10.206h51.86
				c5.636,0,10.206-4.57,10.206-10.206V62.066C227.853,56.43,223.283,51.86,217.647,51.86z M207.441,224.727h-31.448V72.273h31.448
				V224.727z"/>
		</g>
	</g>
</g>
<g>
</g>
<g>
</g>
<g>
</g>
<g>
</g>
<g>
</g>
<g>
</g>
<g>
</g>
<g>
</g>
<g>
</g>
<g>
</g>
<g>
</g>
<g>
</g>
<g>
</g>
<g>
</g>
<g>
</g>
</svg>
